<?xml version="1.0" encoding="UTF-8" standalone="no"?>
<!-- Created with Inkscape (http://www.inkscape.org/) -->

<svg
   xmlns:dc="http://purl.org/dc/elements/1.1/"
   xmlns:cc="http://creativecommons.org/ns#"
   xmlns:rdf="http://www.w3.org/1999/02/22-rdf-syntax-ns#"
   xmlns:svg="http://www.w3.org/2000/svg"
   xmlns="http://www.w3.org/2000/svg"
   xmlns:sodipodi="http://sodipodi.sourceforge.net/DTD/sodipodi-0.dtd"
   xmlns:inkscape="http://www.inkscape.org/namespaces/inkscape"
   width="75.869286mm"
   height="75.869286mm"
   viewBox="0 0 75.869286 75.869285"
   version="1.1"
   id="svg8"
   inkscape:version="0.92.4 (5da689c313, 2019-01-14)"
   sodipodi:docname="cache.svg">
  <defs
     id="defs2" />
  <sodipodi:namedview
     id="base"
     pagecolor="#ffffff"
     bordercolor="#666666"
     borderopacity="1.0"
     inkscape:pageopacity="0.0"
     inkscape:pageshadow="2"
     inkscape:zoom="0.35"
     inkscape:cx="-603.30143"
     inkscape:cy="456.50845"
     inkscape:document-units="mm"
     inkscape:current-layer="layer1"
     showgrid="false"
     fit-margin-top="0"
     fit-margin-left="0"
     fit-margin-right="0"
     fit-margin-bottom="0"
     inkscape:window-width="1920"
     inkscape:window-height="1017"
     inkscape:window-x="-8"
     inkscape:window-y="-8"
     inkscape:window-maximized="1" />
  <metadata
     id="metadata5">
    <rdf:RDF>
      <cc:Work
         rdf:about="">
        <dc:format>image/svg+xml</dc:format>
        <dc:type
           rdf:resource="http://purl.org/dc/dcmitype/StillImage" />
        <dc:title />
      </cc:Work>
    </rdf:RDF>
  </metadata>
  <g
     inkscape:label="Layer 1"
     inkscape:groupmode="layer"
     id="layer1"
     transform="translate(-64.38351,-73.668018)">
    <circle
       style="opacity:0.98999999;fill:#000000;fill-opacity:1;stroke:#ffffff;stroke-width:5.666;stroke-linecap:round;stroke-linejoin:round;stroke-miterlimit:4;stroke-dasharray:none;stroke-opacity:1;paint-order:markers stroke fill"
       id="path4531"
       cx="102.40593"
       cy="111.37731"
       r="31.570978" />
    <path
       style="fill:#ffffff;stroke-width:0.16265199"
       d="m 105.20866,132.66811 c -1.34088,-1.40955 -1.96114,-3.34182 -1.89005,-5.88793 l 0.0463,-1.65833 4.55426,-2.64371 c 2.50483,-1.45405 4.6671,-2.64537 4.80503,-2.64738 0.49573,-0.007 2.8935,1.63108 3.76524,2.57267 1.06113,1.14614 1.62029,2.245 1.72121,3.38253 0.0616,0.69411 0.016,0.89346 -0.26979,1.17922 -0.41298,0.41299 -1.52233,0.46321 -2.66112,0.12048 l -0.7424,-0.22343 -0.10848,0.75205 c -0.16563,1.14818 -0.78019,2.35333 -1.46736,2.87745 -0.83056,0.63351 -2.22424,0.73371 -3.49138,0.25104 -0.48885,-0.18621 -0.93266,-0.28473 -0.98625,-0.21893 -0.0536,0.0658 -0.22143,0.5304 -0.37298,1.03246 -0.57284,1.89769 -1.73217,2.34181 -2.90223,1.11181 z m -3.76665,-9.50162 c -4.335143,-1.76193 -8.585344,-7.10146 -9.973105,-12.52923 -0.390539,-1.52746 -0.458044,-2.11546 -0.461498,-4.01982 -0.0032,-1.77174 0.04615,-2.27999 0.239934,-2.47045 0.134188,-0.13188 2.261702,-1.36615 4.72781,-2.74282 l 4.483829,-2.503036 0.60102,0.208073 c 3.29606,1.141133 6.45806,4.180773 8.71864,8.381263 1.59686,2.96719 2.46432,7.31182 1.99178,9.97568 -0.13217,0.74507 0.20861,0.51122 -5.74569,3.94282 l -3.68361,2.12295 z M 88.807561,101.8232 c -1.44836,-0.81529 -3.306865,-2.691653 -3.823808,-3.860558 -0.533153,-1.205551 -0.528737,-1.936578 0.01498,-2.480298 0.392416,-0.392418 0.491652,-0.413731 1.504531,-0.323136 0.596423,0.05336 1.277851,0.142972 1.514285,0.199172 0.414539,0.09854 0.433975,0.07116 0.544653,-0.767371 0.355641,-2.694445 2.043816,-3.886422 4.361265,-3.079375 1.459823,0.508384 1.411856,0.522031 1.729686,-0.492105 0.528571,-1.686573 1.332491,-2.345926 2.269489,-1.861389 0.691373,0.357525 1.714802,1.696433 2.115672,2.767846 0.54694,1.461845 0.83398,3.921899 0.5716,4.899022 -0.0639,0.238098 -1.45609,1.118367 -4.694541,2.968401 -2.532012,1.446461 -4.704214,2.628801 -4.827117,2.627421 -0.122903,-10e-4 -0.699217,-0.27031 -1.280698,-0.59763 z"
       id="path5229"
       inkscape:connector-curvature="0" />
  </g>
</svg>
